# xmcd
#
# Track frame offsets:
#	150
#	33828
#	47934
#	65386
#	80838
#	101335
#	134684
#	156896
#	189261
#	207501
#	224126
#
# Disc length: 3169 seconds
#
# Revision: 0
# Processed by: cddbd v1.5.2PL0 Copyright (c) Steve Scherf et al.
# Submitted via: audiograbber 1.83.01
#
DISCID=a50c5f0b
DTITLE=Zezé di Camargo and Luciano - Duas Horas de Sucesso ao vivo
DYEAR=2009
DGENRE=Country
TTITLE0=Nosso amor é ouro - Pão de mel
TTITLE1=O melhor é dar um tempo
TTITLE2=O que vai ser de nós
TTITLE3=Te extrano (saudade)
TTITLE4=Mi universo ers tu (Meu universo é você)
TTITLE5=Tristeza do Jeca - Último dos Apaixonados
TTITLE6=Something
TTITLE7=Hey Jude
TTITLE8=Galera Felicidade (Oh! trem bão)
TTITLE9=Mexe que é bom
TTITLE10=Tema de encerramento
EXTD=
EXTT0=
EXTT1=
EXTT2=
EXTT3=
EXTT4=
EXTT5=
EXTT6=
EXTT7=
EXTT8=
EXTT9=
EXTT10=
PLAYORDER=
